PathFileType	4	(X/Y/Z)	Patient4_TMGait_0pt7_02_left_50.trc.trc
DataRate	CameraRate	NumFrames	NumMarkers	Units	OrigDataRate	OrigDataStartFrame	OrigNumFrames
88.050314465409	88.050314465409	4	33	mm	88.050314465409	1	       141
Frame#	Time	Sacral			L.Shoulder			Chest			R.Shoulder			Neck			R.ASIS			L.ASIS			R.Thigh.Superior			R.Thigh.Lateral			R.Thigh.Inferior			R.Patella			L.Thigh.Superior			L.Thigh.Lateral			L.Thigh.Inferior			L.Patella			L.Shank.Superior			L.Shank.Lateral			L.Shank.Inferior			R.Shank.Superior			R.Shank.Lateral			R.Shank.Inferior			R.Heel			R.Midfoot.Superior			R.Midfoot.Lateral			R.Toe			L.Heel			L.Midfoot.Lateral			L.Midfoot.Superior			L.Toe			L.Elbow			L.Wrist			R.Elbow			R.Wrist			
		X1	Y1	Z1	X2	Y2	Z2	X3	Y3	Z3	X4	Y4	Z4	X5	Y5	Z5	X6	Y6	Z6	X7	Y7	Z7	X8	Y8	Z8	X9	Y9	Z9	X10	Y10	Z10	X11	Y11	Z11	X12	Y12	Z12	X13	Y13	Z13	X14	Y14	Z14	X15	Y15	Z15	X16	Y16	Z16	X17	Y17	Z17	X18	Y18	Z18	X19	Y19	Z19	X20	Y20	Z20	X21	Y21	Z21	X22	Y22	Z22	X23	Y23	Z23	X24	Y24	Z24	X25	Y25	Z25	X26	Y26	Z26	X27	Y27	Z27	X28	Y28	Z28	X29	Y29	Z29	X30	Y30	Z30	X31	Y31	Z31	X32	Y32	Z32	X33	Y33	Z33	

1	57.270000000000	779.907554813139	1019.513251620534	513.233814739218	965.942149354815	1439.956722330921	326.708891157550	1081.545431027723	1359.763168279640	475.057118150732	1023.200719934603	1435.538584692340	658.221320425716	987.592108525535	1498.347298876662	482.295993701685	1009.869947789397	944.248635829626	617.511578390560	982.680185391533	968.649457842616	345.277758523513	1042.001419990401	743.281502193960	592.029346018003	954.868433955728	636.462964931429	646.059993287763	1034.279915816125	583.486371177530	568.816599278486	1031.332057292672	495.483803122288	572.985137674430	1078.187900625945	812.050763855708	370.455720457227	1053.979347008705	686.095164831083	281.788695272113	1168.777447457622	635.793700629389	337.828562893086	1192.895687355850	544.809854424529	324.596679975858	1126.637276879377	471.998614644548	322.520809337246	982.182070825244	430.723016904165	280.806577538800	970.329303311400	303.575944265428	339.219315612708	1001.411439072847	408.291808619281	575.560986888396	923.947861192874	304.334351399827	629.031997977799	969.429015561404	210.570109816854	565.594218176600	832.093049677014	47.348682737832	522.872576451600	1005.983070263431	98.299187026182	564.593769323337	914.828720811104	38.404633617064	598.331120020624	1123.065676097081	39.789145580354	593.150424336942	780.558323581907	237.964301998328	386.538367168827	834.765784178230	194.718673008381	302.625161045740	940.859751798395	204.420414955521	319.232811369976	1018.917600811764	94.299315627111	284.849403687424	901.860824993450	1088.523934627797	226.790258269965	962.695276581449	833.904892023767	217.622024046502	1049.695904391218	1082.202402812405	774.078363536560	1191.967259976676	862.636619102228	781.004030099560	
2	57.281357142857	778.582382658290	1019.643892881176	513.700398090667	964.208745085001	1439.884158341454	327.438398221983	1080.350916784970	1359.548542024724	475.225283011594	1022.986210360440	1435.243211974219	658.696512165151	986.567685846128	1498.234549232285	483.019462106029	1008.374002596443	944.119758967679	618.011751337287	981.270729044953	968.546729280226	345.709387024759	1038.243079421148	742.327243056433	591.975288867181	949.864634697797	636.252987059874	646.148498869163	1028.405566309741	582.435254769926	568.740631739459	1024.228693204852	494.839765631009	572.687590320604	1077.373955483187	814.108311220758	371.394550018110	1055.267079498442	688.177584018978	281.986560513955	1170.347859960782	639.478593856962	338.311270809431	1196.344929811569	549.621463757364	325.199655173885	1133.181338443324	475.034058735175	322.936247893373	991.336642657567	427.164197208741	280.715786978777	985.486612892177	299.657963079923	338.859758262199	994.170346091804	407.830490135929	575.340745490220	916.422992680116	304.132665726542	629.034563286260	961.380155252741	210.190308775962	565.381713398669	823.748930967148	47.039697370052	523.141768186412	997.432000596035	98.198256001566	564.554379168600	906.333882329511	38.261090300464	598.325011437526	1114.587173959604	39.809177759626	593.149849402276	799.562676031595	225.183546396506	385.472853665019	855.798286181214	184.800121292346	301.672035851372	960.936390947052	199.418190943865	318.660380337180	1044.021408134042	93.527632827565	284.280987844563	891.800281574059	1090.078667896978	228.611581200036	939.450203441537	834.055616815283	220.590973878727	1060.090023838128	1083.569574278483	773.545409279185	1214.874779157596	874.264883191144	775.001063406861	
3	57.292714285714	777.271298804620	1019.783765187099	514.148091847287	962.513998397689	1439.798850391024	328.142504811719	1079.187534692262	1359.318785507260	475.374889881702	1022.790363174756	1434.937285897135	659.146734034613	985.571689256767	1498.107038945934	483.715432999782	1006.889316873940	943.969977938411	618.484205673900	979.868370724520	968.427349562992	346.120881131041	1034.492384305234	741.372915528982	591.886872534866	944.883037146051	636.044541481487	646.229746237832	1022.538716268837	581.387971959298	568.661571825786	1017.166941495210	494.206265950311	572.389079410276	1076.515564611030	816.057051447529	372.317926563986	1056.433826661968	690.134404166089	282.226339118212	1171.766886249418	642.974938532072	338.826447440274	1199.576887703959	554.246954529114	325.824907014191	1139.511074504917	477.935259522965	323.365774838909	1000.360345890269	423.478824841008	280.609328205778	1000.541043240133	295.659197098974	338.471686929057	986.974982882558	407.373566127360	575.120736203516	908.966212231037	303.928920886876	629.039331336762	953.413791296307	209.817285790214	565.173700995622	815.502119066905	46.730642181690	523.394251941582	988.986625481920	98.097920006830	564.514541002237	897.945436006799	38.117614169655	598.321680668149	1106.214361313807	39.830209567959	593.146772891568	818.566703967121	212.346624082051	384.361027593382	876.791964159906	174.854146310338	300.667501824478	980.934399034514	194.369520123328	318.046422484345	1068.996840968532	92.749383413421	283.668148956010	881.883478131882	1091.654322143050	230.370924107387	916.639565108017	834.347422485708	223.513189848176	1070.232272729012	1084.945368918460	773.010127360611	1237.340497270737	886.006670914039	768.980200853620	
4	57.304071428571	775.988856536191	1019.934040601032	514.556093269515	960.896801744636	1439.682371530647	328.786851222469	1078.083053983313	1359.049047126027	475.478408040137	1022.630034800142	1434.603324836135	659.536819878811	984.630842139990	1497.942884302921	484.348553746695	1005.423172633812	943.777658752021	618.898036802644	978.476674758765	968.259896448548	346.481339619389	1030.728630709792	740.409421600055	591.740259252698	939.900165623003	635.842198678067	646.301213327989	1016.633771840964	580.344872266323	568.581268124531	1010.121445844152	493.589367711396	572.097354610542	1075.533514803227	817.744443916933	373.204938401542	1057.306069432769	691.794890135707	282.535793260007	1172.812932501210	646.029947912937	339.420514145800	1202.311968090597	558.467881179728	326.521784823380	1145.385059901736	480.558463197559	323.835615557692	1009.189406330792	419.495879208486	280.463931714972	1015.514114476110	291.509188302445	338.027597383505	979.796039750424	406.927018998378	574.906205094123	901.561458907515	303.726754838352	629.052926116494	945.524741560921	209.460797581854	564.978509609801	807.355258191174	46.426640516209	523.617554387489	980.657855673083	97.998022551460	564.474375732587	889.675201144745	37.976051823948	598.324950779490	1097.958207046040	39.851494758246	593.139711344867	837.803452593170	199.359135306222	383.144464974457	897.961782876045	164.839138344698	299.567542028908	1000.980929064336	189.256109621718	317.358673327110	1093.943948492925	92.054187778289	283.017596479932	872.182616668598	1093.300925894542	232.018363497968	894.537535985750	834.951939581509	226.367762050014	1079.937949428312	1086.350505469330	772.435380325454	1258.990860252494	898.177985356146	762.843342203685	
